inDegrees=yes
name=ik_lifting_orientations
DataType=double
version=3
OpenSimVersion=4.5-2024-01-10-34fd6af
endheader
time	pelvis_tilt	pelvis_list	pelvis_rotation	pelvis_tx	pelvis_ty	pelvis_tz	hip_flexion_r	hip_adduction_r	hip_rotation_r	knee_angle_r	knee_angle_r_beta	ankle_angle_r	subtalar_angle_r	mtp_angle_r	hip_flexion_l	hip_adduction_l	hip_rotation_l	knee_angle_l	knee_angle_l_beta	ankle_angle_l	subtalar_angle_l	mtp_angle_l	lumbar_extension	lumbar_bending	lumbar_rotation	arm_flex_r	arm_add_r	arm_rot_r	elbow_flex_r	pro_sup_r	wrist_flex_r	wrist_dev_r	arm_flex_l	arm_add_l	arm_rot_l	elbow_flex_l	pro_sup_l	wrist_flex_l	wrist_dev_l
0.02	-0.0001241947314854109	-0.0004539333025165256	-90.10758322492245	0	0.9399999998679526	0	45.19462597333962	-11.7375793234603	0	60.28086442362094	1.052099560140499	-5.870782333614643	0	0	45.19462597333962	-11.7375793234603	0	60.28086442362094	1.052099560140499	-5.870782333614643	0	0	-0.0008165006220325409	-0.0007678169430698931	0.0005310185285757658	-0.2153857206657188	-0.05100819226488299	-0.005521707845839122	0.4536612118360548	2.233465829507396	0	0	0	-10.01208938012301	0	87.79749637045192	2.233465829507396	0	0
0.03	0.0156182216835349	-0.00333701985908759	-90.10957711226003	0	0.9399999998679526	0	45.19119033081465	-11.6445121672274	0	60.27693734214566	1.052031019638761	-5.813202526145881	0	0	45.19119033081465	-11.6445121672274	0	60.27693734214566	1.052031019638761	-5.813202526145881	0	0	-0.007448638095632247	-0.005793485950823238	-0.001440879128019093	-0.2363482342366708	-0.07709462664000777	-0.0339006409709835	0.5069712403221511	2.205517634047386	0	0	0	-10.05858038015021	0	87.82505458343985	2.205517634047386	0	0
0.04	-0.002190880216284855	-0.006635721430401371	-90.11011092513913	0	0.9399999998679526	0	45.19117087392092	-11.6439285301726	0	60.2769151659572	1.052030632591257	-5.812826725556782	0	0	45.19117087392092	-11.6439285301726	0	60.2769151659572	1.052030632591257	-5.812826725556782	0	0	-0.01297627440653361	0.005123693776431951	0.006840812757857824	-0.3116420633736944	-0.02445677393063878	0.01308598461214034	0.5494719883801839	2.20536120404766	0	0	0	-10.05883892484244	0	87.82520883044407	2.20536120404766	0	0
0.05	0.0002069796031683133	-0.003093993022273544	-90.10795104394268	0	0.9399999998679526	0	45.18689811145419	-11.5349961458499	0	60.27200140605181	1.051944871302256	-5.746874009309229	0	0	45.18689811145419	-11.5349961458499	0	60.27200140605181	1.051944871302256	-5.746874009309229	0	0	-0.01110867365936313	-0.001538379007698442	0.001463823975200996	-0.4247596532997908	-0.03825238056317316	0.01627980231873349	0.7163686831447649	2.170308935481599	0	0	0	-10.11745067114799	0	87.85977201666176	2.170308935481599	0	0
0.06	0.0003331466593863121	4.484358599227497e-05	-90.10598569960241	0	0.9399999998679526	0	45.18683023503915	-11.5330400752386	0	60.27192409045386	1.051943521890508	-5.745633133654279	0	0	45.18683023503915	-11.5330400752386	0	60.27192409045386	1.051943521890508	-5.745633133654279	0	0	-0.002102086399957538	0.0003069278539374492	-0.001740315132768715	-0.5590794961964325	-0.06725475184184929	-0.8942152516412942	0.7622406176737799	2.169760717702778	0	0	0	-10.11835889291903	0	87.86031258429476	2.169760717702778	0	0
0.07000000000000001	-0.005894650835172422	-0.0001033586002755761	-90.03791159824213	0	0.9399999998679526	0	45.18131611992447	-11.39079074832479	0	60.26559149043182	1.051832997169912	-5.659251307511799	0	0	45.18131611992447	-11.39079074832479	0	60.26559149043182	1.051832997169912	-5.659251307511799	0	0	0.002936611095878575	0.0003839207542047582	-0.06979868597711894	-0.5700634665855875	-0.1147618847368571	-0.8233155127969841	0.781537168505569	2.124610169780605	0	0	0	-10.19376672699791	0	87.90483313891654	2.124610169780605	0	0
0.08	0.003037204377375351	0.007840356621055776	-90.03807331428278	0	0.9399999998679526	0	45.17764923345234	-11.30239377956431	0	60.26135274777046	1.051759017154327	-5.606912118743264	0	0	45.17764923345234	-11.30239377956431	0	60.26135274777046	1.051759017154327	-5.606912118743264	0	0	-0.01751294031205885	0.02890434345255312	-0.03638002801408492	-0.4938972851652849	-0.1308953904223912	-0.9249576637454335	0.7357539319470318	2.094311888617607	0	0	0	-10.24464938616971	0	87.93470868755223	2.094311888617607	0	0
0.09	-0.0333705753987187	-0.03040079395308827	-90.06683702973589	0	0.9399999998679526	0	45.17240832230235	-11.1815878398579	0	60.25526924249264	1.051652839957166	-5.536606316144781	0	0	45.17240832230235	-11.1815878398579	0	60.25526924249264	1.051652839957166	-5.536606316144781	0	0	-0.08923752319671813	0.09521486392817265	0.09925592404333376	-0.4534309581621937	-0.1449627250430893	-1.00129266959891	0.7326719561398387	2.050753163690114	0	0	0	-10.31806273933999	0	87.97765968841738	2.050753163690114	0	0
0.1	-0.04070986615971108	-0.007669913725200732	-90.06776435610723	0	0.9399999998679526	0	45.16766241461248	-11.0790483169726	0	60.24972653050911	1.051556101383564	-5.478381565689277	0	0	45.16766241461248	-11.0790483169726	0	60.24972653050911	1.051556101383564	-5.478381565689277	0	0	-0.04633483980284719	0.1020379485347195	0.09641752954236751	-0.5318236294431661	-0.1305582428165355	-1.00565018998894	0.825977714885095	2.010969881442283	0	0	0	-10.38546268913915	0	88.01688794959949	2.010969881442283	0	0
0.11	-0.03716911095113878	-0.02945771545197679	-90.06604426910926	0	0.9399999998679526	0	45.16286842396286	-10.98187705160194	0	60.24409375709892	1.051457790941537	-5.424531786515892	0	0	45.16286842396286	-10.98187705160194	0	60.24409375709892	1.051457790941537	-5.424531786515892	0	0	-0.09213885468915423	0.09530303572080961	0.09765851458729771	-0.4578883883073556	-0.1735789959569182	-0.96220471345087	0.7452547197714525	1.970443176559655	0	0	0	-10.45447543001992	0	88.05684928938197	1.970443176559655	0	0
0.12	-0.03106271425676956	-0.03083407573740903	-90.0756458890074	0	0.9399999998679526	0	45.15849764178751	-10.902149812784	0	60.2389055040737	1.05136723884382	-5.38203367549937	0	0	45.15849764178751	-10.902149812784	0	60.2389055040737	1.05136723884382	-5.38203367549937	0	0	-0.09234630082836029	0.08909946085711216	0.09765271731858999	-0.5103709111099277	-0.2202527898637612	-0.9517036775527183	0.7928722573910206	1.932960808751092	0	0	0	-10.51886637043246	0	88.09380880410758	1.932960808751092	0	0
0.13	-0.03880987499538985	-0.03487114912821735	-90.07667934524892	0	0.9399999998679526	0	45.15582422658267	-10.85582480792107	0	60.23571505908739	1.051311555074206	-5.357767007256642	0	0	45.15582422658267	-10.85582480792107	0	60.23571505908739	1.051311555074206	-5.357767007256642	0	0	-0.100186114488486	0.09394038694125779	0.09942355053502949	-0.5736270897620492	-0.2125042766925081	-0.9485339575673234	0.8435720252907515	1.909863579328007	0	0	0	-10.55872785311144	0	88.11658385511609	1.909863579328007	0	0
0.14	-0.03205521351080089	-0.04285714918463143	-90.06808872534398	0	0.9399999998679526	0	45.15279535172163	-10.80608066327624	0	60.23208074770436	1.051248124374529	-5.332202991275548	0	0	45.15279535172163	-10.80608066327624	0	60.23208074770436	1.051248124374529	-5.332202991275548	0	0	-0.116672101717486	0.08991186803221625	0.09619770641125786	-0.506633343964866	-0.212201950558562	-0.9574509453200249	0.7991839118444524	1.883497925393955	0	0	0	-10.6044410160607	0	88.14258175404758	1.883497925393955	0	0
0.15	-0.06035222329447439	-0.0608638327450951	-90.09652685405698	0	0.9399999998679526	0	45.14950863990165	-10.75183903514395	0	60.22813958986021	1.051179338193808	-5.304310716795601	0	0	45.14950863990165	-10.75183903514395	0	60.22813958986021	1.051179338193808	-5.304310716795601	0	0	-0.1250243882036077	0.1227701996356332	0.1271486675408237	-0.505571764629012	-0.1869363244724219	-0.9648177723475835	0.7771051318411822	1.854914633547513	0	0	0	-10.65396950016495	0	88.17076635573848	1.854914633547513	0	0
0.16	-0.02890144598754868	-0.03097555407247808	-90.0660384683444	0	0.9399999998679526	0	45.14592769770539	-10.69642281470074	0	60.22381922227535	1.051103933554556	-5.276491251789782	0	0	45.14592769770539	-10.69642281470074	0	60.22381922227535	1.051103933554556	-5.276491251789782	0	0	-0.09639430327265311	0.09213016089954018	0.0968026623000901	-0.5543720869149109	-0.1737398835526337	-0.9674239808343515	0.81666153265379	1.823500778808698	0	0	0	-10.70869276973627	0	88.20174205716377	1.823500778808698	0	0
